<svg viewBox="0 0 833.06 128.17" xmlns="http://www.w3.org/2000/svg" xmlns:xlink="http://www.w3.org/1999/xlink"><linearGradient id="a" gradientUnits="userSpaceOnUse" x1="-18.95" x2="142" y1="81.68" y2="38.56"><stop offset="0" stop-color="#cce0f4"/><stop offset="0" stop-color="#c3d6ec"/><stop offset="0" stop-color="#adbdd6"/><stop offset="0" stop-color="#8993b3"/><stop offset="0" stop-color="#565982"/><stop offset="0" stop-color="#171144"/><stop offset="0" stop-color="#080036"/><stop offset=".11" stop-color="#07053a"/><stop offset=".26" stop-color="#061646"/><stop offset=".43" stop-color="#053159"/><stop offset=".61" stop-color="#035774"/><stop offset=".8" stop-color="#018697"/><stop offset=".92" stop-color="#00aab1"/></linearGradient><g fill="#fff"><path d="m158.36 67.76c0-15.8 5.95-29.34 17.87-40.62 11.91-11.28 26.24-16.92 42.96-16.92s30.39 5.68 42.19 17.04 17.7 24.86 17.71 40.48c0 16.54-5.83 30.53-17.48 41.95-11.66 11.42-25.96 17.13-42.92 17.13s-30.97-5.75-42.71-17.25c-11.75-11.5-17.62-25.44-17.62-41.82zm104.83.68c0-12.08-4.36-22.25-13.06-30.52-8.71-8.27-19.42-12.4-32.14-12.4s-22.44 4.21-31.06 12.62-12.93 18.52-12.93 30.3c0 11.96 4.43 22.08 13.28 30.35s19.69 12.4 32.53 12.4c11.8 0 21.98-4.22 30.55-12.66 8.56-8.44 12.85-18.47 12.84-30.09z"/><path d="m337.99 12.71v15.12c-4.35-2.92-8.11-4.38-11.26-4.38-2.64 0-4.7.97-6.19 2.91s-2.23 4.66-2.23 8.14v17.74s19.68 0 19.68 0v13.66s-19.68 0-19.68 0v57.23s-14.95 0-14.95 0v-57.23s-13.07 0-13.07 0v-13.66s13.06 0 13.06 0v-16.72c0-8.06 2.07-14.49 6.23-19.3 4.15-4.8 9.69-7.21 16.63-7.21 3.44 0 7.36 1.23 11.77 3.69z"/><path d="m394.65 12.7v15.12c-4.35-2.92-8.11-4.38-11.26-4.38-2.64 0-4.7.97-6.19 2.91s-2.23 4.66-2.23 8.14v17.74s19.68 0 19.68 0v13.66s-19.68 0-19.68 0v57.23s-14.95 0-14.95 0v-57.23s-13.07 0-13.07 0v-13.66s13.06 0 13.06 0v-16.72c0-8.06 2.07-14.49 6.23-19.3 4.15-4.8 9.69-7.21 16.63-7.21 3.44 0 7.36 1.23 11.77 3.69z"/><path d="m405.78 28.94c0-3.09 1.14-5.77 3.44-8.03 2.29-2.26 5.01-3.4 8.16-3.4s5.77 1.13 8.03 3.39 3.4 4.94 3.4 8.03-1.13 5.84-3.39 8.08c-2.26 2.23-4.94 3.35-8.03 3.35s-5.87-1.12-8.16-3.35-3.44-4.93-3.44-8.08zm4.21 23.29h14.78s0 70.89 0 70.89h-14.78s0-70.89 0-70.89z"/><path d="m498.38 101.46v17.1c-7.62 4.35-15.01 6.53-22.17 6.53-9.8 0-18.38-3.68-25.74-11.04s-11.04-15.88-11.04-25.56c0-11 3.66-20.12 11-27.37 7.33-7.25 16.53-10.87 27.58-10.87 6.59 0 13.38 1.72 20.37 5.15v16.67c-7.5-4.81-14.61-7.22-21.31-7.22-6.19 0-11.6 2.18-16.24 6.53s-6.96 9.45-6.96 15.3c0 6.59 2.18 12.13 6.53 16.63s9.68 6.74 15.98 6.74c6.42 0 13.75-2.87 22-8.6z"/><path d="m581.77 90.54h-60.5c1.32 7.28 4.31 12.59 8.98 15.95 4.67 3.35 9.75 5.03 15.25 5.03 8.48 0 15.58-3.52 21.31-10.57l10.91 8.25c-8.19 10.6-19.16 15.9-32.91 15.9-10.54 0-19.36-3.61-26.47-10.82-7.1-7.22-10.66-16.18-10.66-26.89 0-10.02 3.59-18.72 10.78-26.08s15.97-11.04 26.34-11.04c10.2 0 18.93 3.74 26.21 11.21 7.28 7.48 10.86 17.17 10.74 29.09zm-58.95-11.94h43.31c-4.81-9.74-11.92-14.61-21.31-14.61-10.26 0-17.59 4.87-22 14.61z"/><path d="m597.61 9.25 80.95 83.2v-78.83s14.95 0 14.95 0v114.55s-80.94-82.83-80.94-82.83v77.77s-14.94 0-14.94 0v-113.86z"/><path d="m783.27 90.52h-60.5c1.32 7.28 4.31 12.59 8.98 15.95 4.67 3.35 9.75 5.03 15.25 5.03 8.48 0 15.58-3.52 21.31-10.57l10.91 8.25c-8.19 10.6-19.16 15.9-32.91 15.9-10.54 0-19.36-3.61-26.47-10.82-7.1-7.22-10.66-16.18-10.66-26.89 0-10.02 3.59-18.72 10.78-26.08s15.97-11.04 26.34-11.04c10.2 0 18.93 3.74 26.21 11.21 7.28 7.48 10.86 17.17 10.74 29.09zm-58.95-11.94h43.31c-4.81-9.74-11.92-14.61-21.31-14.61-10.26 0-17.59 4.87-22 14.61z"/><path d="m803.33 31.57h14.95s0 20.62 0 20.62h14.78s0 13.66 0 13.66h-14.78s0 57.23 0 57.23h-14.95s0-57.23 0-57.23h-11.77s0-13.83 0-13.83h11.77s0-20.45 0-20.45z"/></g><path d="m92.98 126.8h-92.97s-.01-126.79-.01-126.79h139.45c-19.5 31.97 14.05 125.59-46.47 126.78z" fill="url(#a)"/><path d="m82.29 14.59c-16.49 0-29.85 13.37-29.85 29.85s13.37 29.85 29.85 29.85 29.85-13.37 29.85-29.85c0-16.49-13.37-29.85-29.85-29.85zm.01 48.16c-10.11 0-18.31-8.19-18.31-18.3s8.19-18.31 18.3-18.31 18.31 8.19 18.31 18.3-8.19 18.31-18.3 18.31z" fill="#fff"/></svg>